<svg id="Layer_1" data-name="Layer 1" xmlns="http://www.w3.org/2000/svg" xmlns:xlink="http://www.w3.org/1999/xlink" viewBox="0 0 1229.09 1133.89"><defs><style>.cls-1{fill:none;}.cls-2{clip-path:url(#clip-path);}.cls-3{fill:#4caae8;}.cls-4{fill:#050122;}.cls-5,.cls-6{fill:#fff;}.cls-6{opacity:0.75;}</style><clipPath id="clip-path" transform="translate(186.28 226.51)"><rect class="cls-1" x="22.73" y="256.76" width="954.55" height="342.32"/></clipPath></defs><g class="cls-2"><rect class="cls-3" x="209.01" y="483.27" width="954.55" height="342.32"/><path class="cls-4" d="M264,445.62l-14.66-3.83-20.69-9-9.28-3.51-4-2.91,2.23-2A40.69,40.69,0,1,0,264,445.62Z" transform="translate(186.28 226.51)"/><path class="cls-4" d="M616.4,462.47c-9.33-.4-23.82-.1-32.75.16a40.66,40.66,0,1,0,32.75-.16Z" transform="translate(186.28 226.51)"/><polygon class="cls-5" points="431.7 690.31 431.7 688.99 441.15 689.65 450.6 690.31 441.15 690.97 431.7 691.63 431.7 690.31"/><polygon class="cls-5" points="396.03 690.31 396.03 688.99 386.58 689.65 377.13 690.31 386.58 690.97 396.03 691.63 396.03 690.31"/><polygon class="cls-5" points="430.83 695.83 431.24 694.57 440.02 698.12 448.81 701.67 439.61 699.38 430.42 697.08 430.83 695.83"/><polygon class="cls-5" points="396.9 684.8 397.31 683.55 388.12 681.25 378.93 678.96 387.71 682.51 396.49 686.06 396.9 684.8"/><polygon class="cls-5" points="428.3 700.8 429.07 699.73 436.33 705.82 443.59 711.91 435.55 706.89 427.52 701.87 428.3 700.8"/><polygon class="cls-5" points="399.44 679.83 400.21 678.76 392.18 673.74 384.14 668.72 391.4 674.81 398.66 680.9 399.44 679.83"/><polygon class="cls-5" points="424.35 704.75 425.42 703.97 430.44 712 435.46 720.04 429.37 712.78 423.28 705.52 424.35 704.75"/><polygon class="cls-5" points="403.38 675.88 404.45 675.11 398.36 667.85 392.27 660.59 397.29 668.63 402.31 676.66 403.38 675.88"/><polygon class="cls-5" points="419.38 707.28 420.63 706.87 422.93 716.06 425.22 725.25 421.67 716.47 418.12 707.69 419.38 707.28"/><polygon class="cls-5" points="408.35 673.35 409.61 672.94 406.06 664.16 402.51 655.37 404.81 664.57 407.1 673.76 408.35 673.35"/><polygon class="cls-5" points="413.87 708.15 415.19 708.15 414.53 717.6 413.87 727.05 413.21 717.6 412.55 708.15 413.87 708.15"/><polygon class="cls-5" points="413.87 672.48 415.19 672.48 414.53 663.03 413.87 653.58 413.21 663.03 412.55 672.48 413.87 672.48"/><polygon class="cls-5" points="408.35 707.28 409.61 707.69 406.06 716.47 402.51 725.25 404.81 716.06 407.1 706.87 408.35 707.28"/><polygon class="cls-5" points="419.38 673.35 420.63 673.76 422.93 664.57 425.22 655.37 421.67 664.16 418.12 672.94 419.38 673.35"/><polygon class="cls-5" points="403.38 704.75 404.45 705.52 398.36 712.78 392.27 720.04 397.29 712 402.31 703.97 403.38 704.75"/><polygon class="cls-5" points="424.35 675.88 425.42 676.66 430.44 668.63 435.46 660.59 429.37 667.85 423.28 675.11 424.35 675.88"/><polygon class="cls-5" points="399.44 700.8 400.21 701.87 392.18 706.89 384.14 711.91 391.4 705.82 398.66 699.73 399.44 700.8"/><polygon class="cls-5" points="428.3 679.83 429.07 680.9 436.33 674.81 443.59 668.72 435.55 673.74 427.52 678.76 428.3 679.83"/><polygon class="cls-5" points="396.9 695.83 397.31 697.08 388.12 699.38 378.93 701.67 387.71 698.12 396.49 694.57 396.9 695.83"/><polygon class="cls-5" points="430.83 684.8 431.24 686.06 440.02 682.51 448.81 678.96 439.61 681.25 430.42 683.55 430.83 684.8"/><polygon class="cls-5" points="396.03 690.31 396.03 691.63 386.58 690.97 377.13 690.31 386.58 689.65 396.03 688.99 396.03 690.31"/><polygon class="cls-5" points="431.7 690.31 431.7 691.63 441.15 690.97 450.6 690.31 441.15 689.65 431.7 688.99 431.7 690.31"/><polygon class="cls-5" points="804.32 726.29 804.32 724.97 813.77 725.63 823.22 726.29 813.77 726.95 804.32 727.61 804.32 726.29"/><polygon class="cls-5" points="768.64 726.29 768.64 724.97 759.19 725.63 749.74 726.29 759.19 726.95 768.64 727.61 768.64 726.29"/><polygon class="cls-5" points="803.44 731.8 803.85 730.55 812.63 734.1 821.42 737.64 812.23 735.35 803.03 733.06 803.44 731.8"/><polygon class="cls-5" points="769.51 720.78 769.92 719.52 760.73 717.23 751.54 714.94 760.32 718.49 769.11 722.03 769.51 720.78"/><polygon class="cls-5" points="800.91 736.77 801.68 735.71 808.94 741.8 816.2 747.88 808.17 742.86 800.13 737.84 800.91 736.77"/><polygon class="cls-5" points="772.05 715.81 772.82 714.74 764.79 709.72 756.76 704.7 764.01 710.78 771.27 716.87 772.05 715.81"/><polygon class="cls-5" points="796.96 740.72 798.03 739.95 803.05 747.98 808.07 756.01 801.98 748.75 795.89 741.5 796.96 740.72"/><polygon class="cls-5" points="775.99 711.86 777.06 711.08 770.97 703.83 764.88 696.57 769.9 704.6 774.93 712.64 775.99 711.86"/><polygon class="cls-5" points="791.99 743.25 793.25 742.85 795.54 752.04 797.83 761.23 794.28 752.45 790.74 743.66 791.99 743.25"/><polygon class="cls-5" points="780.97 709.33 782.22 708.92 778.67 700.13 775.13 691.35 777.42 700.54 779.71 709.73 780.97 709.33"/><polygon class="cls-5" points="786.48 744.13 787.8 744.13 787.14 753.58 786.48 763.03 785.82 753.58 785.16 744.13 786.48 744.13"/><polygon class="cls-5" points="786.48 708.45 787.8 708.45 787.14 699 786.48 689.55 785.82 699 785.16 708.45 786.48 708.45"/><polygon class="cls-5" points="780.97 743.25 782.22 743.66 778.67 752.45 775.13 761.23 777.42 752.04 779.71 742.85 780.97 743.25"/><polygon class="cls-5" points="791.99 709.33 793.25 709.73 795.54 700.54 797.83 691.35 794.28 700.13 790.74 708.92 791.99 709.33"/><polygon class="cls-5" points="775.99 740.72 777.06 741.5 770.97 748.75 764.88 756.01 769.9 747.98 774.93 739.95 775.99 740.72"/><polygon class="cls-5" points="796.96 711.86 798.03 712.64 803.05 704.6 808.07 696.57 801.98 703.83 795.89 711.08 796.96 711.86"/><polygon class="cls-5" points="772.05 736.77 772.82 737.84 764.79 742.86 756.76 747.88 764.01 741.8 771.27 735.71 772.05 736.77"/><polygon class="cls-5" points="800.91 715.81 801.68 716.87 808.94 710.78 816.2 704.7 808.17 709.72 800.13 714.74 800.91 715.81"/><polygon class="cls-5" points="769.51 731.8 769.92 733.06 760.73 735.35 751.54 737.64 760.32 734.1 769.11 730.55 769.51 731.8"/><polygon class="cls-5" points="803.44 720.78 803.85 722.03 812.63 718.49 821.42 714.94 812.23 717.23 803.03 719.52 803.44 720.78"/><polygon class="cls-5" points="768.64 726.29 768.64 727.61 759.19 726.95 749.74 726.29 759.19 725.63 768.64 724.97 768.64 726.29"/><polygon class="cls-5" points="804.32 726.29 804.32 727.61 813.77 726.95 823.22 726.29 813.77 725.63 804.32 724.97 804.32 726.29"/><circle class="cls-4" cx="413.87" cy="690.31" r="26.61"/><circle class="cls-4" cx="786.48" cy="726.29" r="26.61"/><path class="cls-5" d="M230.72,450.16s4.73,2.29,4.49,3.09-2.08,5.05-3.69,4.82-5.73-2.4-5.39-3.95S228.89,449.93,230.72,450.16Z" transform="translate(186.28 226.51)"/><path class="cls-6" d="M235.92,455s-1.57,3.21,0,4,6.15,4.68,6.15,5.44c2-.4,6-6,3.35-6.93S235.92,455,235.92,455Z" transform="translate(186.28 226.51)"/><path class="cls-5" d="M602.37,485.13c3.25,1.37,4.26,4.59,2,7.46-2.87.11-6.41-3.73-6.41-3.73S598.57,483.53,602.37,485.13Z" transform="translate(186.28 226.51)"/><path class="cls-6" d="M608.12,490.52s-.91,6.08,7.34,8.72c1.74.54,7.23-5.94,1.15-7.67S608.12,490.52,608.12,490.52Z" transform="translate(186.28 226.51)"/><path class="cls-4" d="M982.47-14.76c-54.41-69-21.26-54.45-133.18-139.77C496.83-355.45,155.72-72,155.72-72L120.86-14.76s-48.62,41.42-50,67.56-27.52,94-46.79,122.48c-29.7,52.65-57.79,126.6-57.79,126.6s-30.45,61.94-53,121.81c0,0-49.18,77.36-51.78,116.76,5.32-15.13,20.52-50.1,37.59-75.24-5.77,19.25-9.46,36.39-9.46,48.75,0,19.21-.64,42.77-2.17,67.49-13.39,22.25-34.23,68.27-16.11,117.89C-133,708.4-189.11,824-186.17,853.09c5.51-18,29.17-96.73,48.38-113.5h0q-.6,6.54-.67,13.36c-2.35,3.89-4.3,6.88-4.3,6.88s-31.2,56.58-30.58,82.57C-156.81,802-147.94,791-147.94,791s-6.42,54.73,6.73,77.36c-2.16-8.64-6.71-70.68,3.63-94.55a277.2,277.2,0,0,0,8.47,46.94h0s-3.59,36.3,4.84,52.51c-1.28-6.39-2.15-28.12-1.26-40.34A214.73,214.73,0,0,0-114,862.14H79.39c-2.18,28.73-3.18,45.23-3.18,45.23s1.92-16.62,5.53-45.23h3.8l-2.67-8.88q1.14-9,2.46-19.21A47.53,47.53,0,0,0,87,821.36c2.1-16,4.49-33.85,7.14-53.16,5.36,25.08,7.44,53.33,6.94,59.1,8.09-21-1.86-63.13-4.8-74.53.08-.62.17-1.26.26-1.88,3.15,3.29,13.55,15.15,32.14,45.67-2.18-16-18.35-41.74-30.28-58.92q.77-5.43,1.55-11c18.33,27.43,37.35,66.68,43.1,78.44-.89-15.4-21.83-52-42.25-84.35,10.65-74.45,24.37-163.39,40.37-251.84,1.27.43,2.46.78,3.52,1.06-2.72,8.89-1.87,23.87,16.24,31.45a85.54,85.54,0,0,0,9.63,3.31c-2.34,5.35-5.13,14.1-3.21,22.38,0-4.91,5.69-15.58,8.78-21l1.85.4c0,5.09.56,14.18,3.75,19.11-1.64-2.41-1.57-10.2,1.07-18.23,2.39.39,4.84.72,7.33,1,3,4.29,2.69,11.29,7.19,19.64-2.3-5.86-4.46-14.74-1.66-19.16,4.58.31,9.28.43,14,.33,6.44,5.22,7.91,16.06,9.34,23.73a37,37,0,0,1,9.59-25.2h0a141.36,141.36,0,0,0,34.77-9.05c10.09-.92,34.55-6.12,37-1.53a16.48,16.48,0,0,0-1.35-6.49c-10.88-44.75-52.56-59.67-80.45-68.46A89.53,89.53,0,0,0,203.29,419,80.89,80.89,0,0,1,201,408.3c-1,1.22-.68,6.8-.34,10.43-1.66-.18-3.34-.35-5.06-.48-.67-2.56-1.51-5.86-1.94-7.81-.74,1.3-.58,5-.34,7.65-2.23-.15-4.51-.26-6.8-.34-1.63-3.28-4.37-8.42-6-9.45,1.23.92,3.33,5.9,4.59,9.4-4.53-.13-9.15-.15-13.76-.07a57.31,57.31,0,0,1-3.21-9.33c-.7,1.49-.55,6.12-.33,9.4-5.35.14-10.63.39-15.72.7q-.5-.88-1.14-1.83,2-10.6,4.12-21.12c7.8-2.79,41.44-11.81,97.7,14.49a214.5,214.5,0,0,1,25.92,16.4s-13-10.54-25.38-17.56h0l-.18-.1a71.43,71.43,0,0,0-8.6-4.23c-16.17-7.28-52.35-20.41-88.8-12.3,4.17-21,8.47-41.76,12.87-62C194.28,343.53,258,378,258,378s32.43,17,42.36,6.88,5.81-25.69-5.2-33S204.8,303.71,191.5,294.54a104.36,104.36,0,0,0-13.15-7.63c7.74-33,15.78-64.06,24.05-92.21C253.19,21.81,380.83-31.87,443.19-48.86,517.83-63.94,607.3-63.23,664-47.5c22.65,6.28,59.4,19.42,92.19,32.31,20.44,27.52,48.61,58.58,74.75,85.67h0c33.61,47,38.9,145.61,38.9,145.61h0c1.34,99.1,4.07,208.15,9.43,298.52-29.3,37.71-65.63,82.5-98.47,117.39,0,0,21.57-19.87,49.57-47.91-6.33,27-24.66,108.8-17.38,123.7,0,0,5.29-98.57,38.9-145.61h0c9.37-9.71,19-19.94,28.45-30.33,3.62,55.85,8.35,103.38,14.49,135.26-3.41,11.41-12.8,44.08-18,73.75-6.42,36.7-41.28,121.28-41.28,121.28H982.47S1118.24,157.36,982.47-14.76ZM-113.64,597.86c-2.48,32.29-6.52,65.31-12.63,92.31C-129.61,659.94-129.61,621.7-113.64,597.86ZM65.82,517.93c3.21-14.68.91-44.95.91-44.95l2.61-11.45a47,47,0,0,1,6.08,6.93C71.31,492,67.51,514.8,64,536.66,64.41,528.58,65,521.72,65.82,517.93Zm7.6-73.38-.19-.08,1.13-5s-.29-11.87,2.92-15.8,5.51-26.4,3.67-35.57c-.48-2.42,0-9.44,2.2-20.68a68.39,68.39,0,0,1,9.35,9.73c-5.15,25.74-9.94,51.26-14.4,76.16C75.37,447.72,73.42,444.55,73.42,444.55ZM102,331.4q-3.09,14.46-6.06,28.9c-3.84-7-6.33-11.3-6.33-11.3s-.75.36-1.92,1A91.29,91.29,0,0,1,102,331.4Zm1.29,61.28a301.8,301.8,0,0,1,15.3,28.78l-3.82.45a34.63,34.63,0,0,1-17.91-2.33Q99.94,406.4,103.26,392.68Zm21.52,28.07c-5.63-14.24-12.38-28.57-18.47-40.64q7.13-29.14,15.17-60.56c9.61-2.7,18.5-1.31,26,1.12-6.26,32.83-12,66.2-17.37,99.53ZM106.88,291.3Q111,280.86,116,269.42q-2.15,9-4.24,18A58.14,58.14,0,0,0,106.88,291.3ZM72.24,817.93s-4.13-28.44-3.67-43.58c.08-2.72,0-6.21-.08-10.14,4.53,12.48,8,21.7,9,23.19,2,3,4.22,14.91,5.76,26.28-1,11.67-1.86,22.44-2.63,32.21ZM84.72,797c-1.48-8.53-3.12-14.8-3.12-14.8S58,717.12,76.52,728.1c5,3,9.18,10.9,12.56,21.06C87.46,766.18,86,782.19,84.72,797Zm6.46-69.47c-3.48-4.75-5.76-7.67-5.76-7.67s-29.7-32.72-8.08-19.19c4.51,2.82,9.63,8.27,15,15.28Q91.75,721.8,91.18,727.53ZM63.79,665.05c.17-2.7.38-5.16.65-7.21,1.83-14.22-1.21-64.68-1.21-64.68s-.08-8,0-18.87Q71.32,533,82.54,482c12.09,32.6.74,80.3-8,108.46,29.94-44.25,20.93-91.91,10.67-120.31q4.63-20.65,9.84-42.86c5.43,7.92,15.43,16.79,25.41,23.82-7.7-.49-19.3-.17-22.5,5.52,10,.83,19.48,1.42,26,3.38-13.32,88.84-23.46,175.58-30.89,248.68C80.13,688.68,68.51,671.83,63.79,665.05ZM299,490.58a19.91,19.91,0,0,0-4.42-6.5C297.6,486.58,298.47,488.32,299,490.58Zm-80.42-54.3c47.55,6.12,64.15,35.88,69.26,43.12-6.87,7-8.87,12.23-24.77,12.84-8.06,3.38-33.64,15-72,10.58-16.36-4.15-26.14-7.21-41.74-39.93C150.52,447.29,171,430.17,218.57,436.28ZM132.2,278.77q5.72-20.38,12.23-39.13c-1.13,27.88,2.47,43.69,1.89,21.9-.76-28.53,14.68-51.09,28.19-65.28-6.65,26.72-12.89,54.48-18.76,82.86A62.22,62.22,0,0,0,132.2,278.77Zm778.65,16.86c-2.85,10.16-11,39.74-18,71,1-75.48,3.18-149.1,5.38-208C901.69,201,905.94,248.29,910.85,295.63Zm19.49-54.22c-.8-22.07-1.42-43-1.9-62A389.46,389.46,0,0,1,942.33,216C938.06,224,934,232.66,930.34,241.41ZM892.6,384.93c4.44-21.91,10.18-42.46,17.17-51.16a28.11,28.11,0,0,1,4.64-4.91c0,.12,0,.24,0,.36-3.78,14.79-6,25.33-6,25.33s-13.86,40.85-16.1,69.69Q892.41,404.62,892.6,384.93Zm25.56-23.44c3.58,30,7.42,59.09,11.51,85.93,0,.19-.09.39-.14.58l-3.31,4.52C920.05,430.78,908.92,378.22,918.16,361.49Zm21.63,48.59c-1.08-13.27-2.06-26.7-3-40.18-.65-12.82-1.41-26.48-2.1-38.36,5.85-8.85,12.62-18.53,18.83-27.21C950.88,352.86,945.49,385.82,939.79,410.08Zm-117-395.73c15,9.53,30.63,23.13,45.91,46.69,0,13.34.07,27.45.14,42.18C837.22,66.48,805.64,26,782.44-4.55,801.27,3.33,816.33,10.27,822.74,14.35ZM852.42,92.4c5.79,5.79,11.3,11.24,16.4,16.23.11,22.22.29,45.79.54,70.25C865.29,148.7,856.45,109.51,852.42,92.4Zm39.9,345.16c.14,1.29.31,2.51.55,3.65,9.15-42.64,16-55,16-55s2.71,45.17,15.81,68.5c-7.72,10.47-18.78,25.31-32,42.52C892.42,477.63,892.31,457.68,892.32,437.56Zm30.4,44.1C912.05,538.66,897.91,628,897.91,628l-.25,4.75c-2.42-34.5-3.9-73.69-4.66-115.12C903.67,505.48,913.81,493.31,922.72,481.66Z" transform="translate(186.28 226.51)"/><path class="cls-4" d="M730,355.64c-39.75-36-97.24-28.23-97.24-28.23s-72.57,9.3-120.4,19.62c-10.59,14.19-19.94,34.48-18.82,31.91a293.57,293.57,0,0,0,9.34-29.77c-1.92.45-3.77.91-5.56,1.36a104.7,104.7,0,0,0-3.09,15.92,2.14,2.14,0,0,1,0,.57c-.07.33-.07.08,0-.57-.25-2.33-2.93-9.09-4.87-13.75-2.22.64-4.28,1.29-6.14,1.93l-.45.16a15.63,15.63,0,0,0-1.84,6.72c-1.14-2.28-4.38-2.74-7.35-2.64-1,.55-1.93,1.12-2.83,1.7a8.09,8.09,0,0,1,4,5.3c-.73-1.47-4.41-2.22-7.67-2.6q-1.05.86-2,1.74c2.92,2.13,6.54,5.69,6,10-2.15-2.58-6.21-4.35-9.92-5.51-9.94,13.94-3,30.33,6.79,32.81,25.38,6.42,115.29-24.16,158.85-33.34,7.24-2.1,29.45-3.8,35-3.47,48.36,3,117.76,50.57,117.76,50.57C774.06,408.76,769.78,391.63,730,355.64Z" transform="translate(186.28 226.51)"/><path class="cls-4" d="M308.93,516.56s3.36-7.19,7-32.51c1.23-53.76-34.78-69.55-34.78-69.55a81.22,81.22,0,0,1,15.76,16.74,23.46,23.46,0,0,0-12.32-6.74,59.12,59.12,0,0,1,16.74,13.77,91.69,91.69,0,0,1,11.55,45.78Z" transform="translate(186.28 226.51)"/><path class="cls-4" d="M431,507.84s-3.1-8.69-.65-16.27a72.49,72.49,0,0,0-12.24,43.79c9.79-8.56,19.59-37.93,36.09-43.79C443.59,493.05,431,507.84,431,507.84Z" transform="translate(186.28 226.51)"/><path class="cls-4" d="M310,570.11c2.16-47.9,14.85-80.54,14.85-80.54C308,532,309.62,541.33,310,570.11Z" transform="translate(186.28 226.51)"/><path class="cls-4" d="M674.52,478c-4.79-2.23-9.5-4.2-14.15-6a87.32,87.32,0,0,0,2.41-9.31c9.51,6.28,16.67,12.08,21.38,15A181.29,181.29,0,0,0,663,460.86a1.94,1.94,0,0,0,0-.24l-.08.21c-2.3-1.57-4.59-3.06-6.87-4.45.44-1.9.83-3.58,1.11-4.81a25.33,25.33,0,0,0-1.93,4.33c-3.09-1.86-6.16-3.58-9.22-5.13,0-.35,0-.69-.08-1,0,.28-.1.58-.16.87A131.93,131.93,0,0,0,573,436.48a115.69,115.69,0,0,0-16.54,2.66l-2.23.53-.08,0a113.22,113.22,0,0,0-11.19,3.38l2.28-1.09c79.49-31.49,130.59,18.43,148,29.43-41.49-38.56-82.8-44-111.19-41.3a116.14,116.14,0,0,0-16.54,2.66c-.76.17-1.5.35-2.22.53l-.08,0a94.65,94.65,0,0,0-18,6.16v0a122.77,122.77,0,0,0-26.49,15.59c-11.37,7.21-17.22,13.54-16.13,12.79a228.91,228.91,0,0,1,33.56-19.52c41.63-16.5,75.47-10.66,100.76.22-2.73,4.62-3.92,10.1-5.77,14.7q-3.76-.81-7.44-1.46c.5-4.61,1.46-9.54.82-14.35.15,3.18-1.5,8.87-3.28,13.95-6-1-11.88-1.6-17.51-1.95-.17-5.74,1.67-12.18,3.1-17.47-2.16,3.43-4.92,11.43-6.78,17.28-2.64-.11-5.23-.17-7.77-.16-.67-5.78,1.83-13.77,1.33-19.15-.93,4.11-2.87,13.14-4.15,19.18-2.48,0-4.91.14-7.28.28-1.26-5.59-.68-12.26-.28-17.73-1.45,3.73-2.62,11.91-3.34,18-2.84.23-5.58.52-8.25.87-1.66-5.18-2.27-11.42-5-16.66,1.48,3.47,1.81,11.11,1.82,17.1-2.44.36-4.79.77-7.08,1.21-.94-5.3-.51-11.95-1.83-16.34-.09,3.6-.18,10.86-.24,16.75a162.38,162.38,0,0,0-22.21,6.19c-1-4.81-1.22-10.36-2.68-14.08.18,3.19.59,9.27,1,14.71l-1.66.62a20.55,20.55,0,0,0-2,.93,89.5,89.5,0,0,1-3.38-13.06c-.29,3.18.37,9,1.15,14.35-1.22.77-2.49,1.65-3.79,2.63-2.42-4.1-4.61-8.8-8.09-12.41,2.14,2.62,4.31,8.71,5.93,14.1-.85.68-1.7,1.4-2.55,2.14-1.7-4.33-3-9.25-5.05-12.4.78,3,2.29,8.52,3.69,13.61-6.9,6.21-13.3,13.58-14.81,17.35l-20.18,16.05c9.63,5.51,25.69,4.13,25.69,4.13,1.53,19.12-6.36,43.58-6.36,43.58s9.8-24.2,17.84-35.42h0c1.52,1,3.17,2,5,3.07,1.68,12.84-2.07,45.19-2.07,45.19s4-27.66,13.2-39c3.61,1.84,7.53,3.69,11.72,5.49,1.41,10.06,0,25.08-1.68,31.1-2.32,8.11,6.67-16.11,13.45-26.52q3.4,1.19,7,2.27c.26,9.79-2.7,26.69-2.7,26.69s4.43-16.42,10.62-24.48l1.7.42-.11,0s6.18,12.77,1.26,26.22c7.63-9.78,12.81-23.46,12.81-23.46l-.1,0,.17,0h-.07s-.29,15.82,0,21.32c3.05-2.75,9.64-20.21,9.64-20.21h-.12c1.94.14,3.86.22,5.77.26.75,4.05,2.76,16.26,1,23.33l9.68-23.66c1.81-.14,3.6-.31,5.37-.54,1,5,3.09,14.27,4.94,17.78.32-6.52,4.63-15.34,7.11-19.91a146,146,0,0,0,53.91-25.2S652,546.41,595.62,545c-37.44-5.31-66.58-25.46-81.41-37.81,0-.05,11.24-22.75,35.76-30.54,17.92-5.53,35.56-2.68,51.62,0,51.83,12.84,74.68,40.17,86.23,49.08C673.6,538.11,649,546.52,649,546.52s28.72-7,45.24-17.12c30.73-25.69,76.14-49.54,76.14-49.54C751.58,485.36,703.88,476.19,674.52,478Zm-12.17-15.57a89.5,89.5,0,0,1-3.88,8.87q-2.75-1-5.45-1.95c.81-3.41,1.8-7.52,2.65-11.12Q659.18,460.37,662.35,462.45Zm-11.68,6.12c-1.94-.64-3.87-1.23-5.79-1.8a129.24,129.24,0,0,0,1.24-13.84c3,1.54,5.86,3.13,8.57,4.74C653.47,461.39,652.37,465.48,650.67,468.57ZM637,448.62c2.94,1.27,5.77,2.61,8.49,4a57.11,57.11,0,0,1-3.73,13.3c-2.56-.71-5.11-1.37-7.62-2C634.64,458.58,635.52,452.13,637,448.62Z" transform="translate(186.28 226.51)"/></g><path class="cls-3" d="M61.39,708.21a21.17,21.17,0,0,0,6.44-3.33,17.43,17.43,0,0,0,4.49-5.25,17,17,0,0,0,2-6.9h7.53A22.24,22.24,0,0,1,79.22,702,24.55,24.55,0,0,1,73,709.43a28.26,28.26,0,0,1-8.78,4.92,31,31,0,0,1-10.43,1.75,29.47,29.47,0,0,1-13.6-3,28.52,28.52,0,0,1-9.71-8,32.85,32.85,0,0,1-5.81-11.32,48,48,0,0,1-2-13.37v-2.78a48.1,48.1,0,0,1,2-13.33,33.55,33.55,0,0,1,5.81-11.43A28.27,28.27,0,0,1,40.16,645a29.5,29.5,0,0,1,13.6-3,31.28,31.28,0,0,1,11.06,1.88,26.42,26.42,0,0,1,8.75,5.25,24.92,24.92,0,0,1,5.88,8.05,27.13,27.13,0,0,1,2.44,10.17H74.36a20.1,20.1,0,0,0-1.88-7.43A19.52,19.52,0,0,0,68.16,654a20.86,20.86,0,0,0-6.44-3.82,22.19,22.19,0,0,0-8-1.39,21.07,21.07,0,0,0-10.6,2.51A21.61,21.61,0,0,0,36,657.86a29.67,29.67,0,0,0-4.06,9.31,43.13,43.13,0,0,0-1.29,10.5v2.78A43.62,43.62,0,0,0,31.94,691,28,28,0,0,0,36,700.26a20.37,20.37,0,0,0,17.83,9.11A24.6,24.6,0,0,0,61.39,708.21Z" transform="translate(186.28 226.51)"/><path class="cls-3" d="M154,709.7c-.24-1.81-.41-3.63-.49-5.48a28.9,28.9,0,0,1-4.79,4.92,29.41,29.41,0,0,1-6,3.73,32.92,32.92,0,0,1-7,2.41,34.71,34.71,0,0,1-7.63.82,29.19,29.19,0,0,1-9.31-1.45,22.93,22.93,0,0,1-7.53-4.09,19.63,19.63,0,0,1-5-6.37,18.63,18.63,0,0,1-1.85-8.36,19,19,0,0,1,2.74-10.43,22.1,22.1,0,0,1,7.37-7.07,34.78,34.78,0,0,1,10.63-3.86A68.84,68.84,0,0,1,138,673.18h15.52v-8a16.42,16.42,0,0,0-1.59-7.1,14.54,14.54,0,0,0-4.16-5.12,19.05,19.05,0,0,0-6.24-3.13,27.87,27.87,0,0,0-15.08-.1,20.79,20.79,0,0,0-6.21,2.84,15.79,15.79,0,0,0-4.33,4.52,11.62,11.62,0,0,0-1.75,6l-7.92-.07a17.9,17.9,0,0,1,2.44-8.38,22.76,22.76,0,0,1,6-6.67,30,30,0,0,1,8.75-4.36A35,35,0,0,1,134.06,642a37.57,37.57,0,0,1,10.63,1.45,26.26,26.26,0,0,1,8.65,4.29,21.94,21.94,0,0,1,5.78,7.33,23.64,23.64,0,0,1,2.21,10.17v34.53a43.43,43.43,0,0,0,.62,7.27,69.12,69.12,0,0,0,1.56,6.93l.06.79h-8.45A32.08,32.08,0,0,1,154,709.7ZM137,708.08a28.72,28.72,0,0,0,6.94-2.87,25.1,25.1,0,0,0,5.61-4.43,22.12,22.12,0,0,0,4-5.74V679.32h-14.4a69.41,69.41,0,0,0-11.15,1,24.53,24.53,0,0,0-9,3.3,14.81,14.81,0,0,0-4.79,4.72,13.73,13.73,0,0,0-.43,12.58,13.1,13.1,0,0,0,3.57,4.35,15.41,15.41,0,0,0,5.31,2.81,21.72,21.72,0,0,0,6.51,1A28.57,28.57,0,0,0,137,708.08Z" transform="translate(186.28 226.51)"/><path class="cls-3" d="M240.33,642.38a27.1,27.1,0,0,1,5,1l-1,7.66c-1.81-.39-3.63-.7-5.48-.92a48.15,48.15,0,0,0-5.68-.33,36.87,36.87,0,0,0-9.41,1.15,24.71,24.71,0,0,0-7.89,3.6,23.79,23.79,0,0,0-5.85,6,27.44,27.44,0,0,0-3.79,8.55l.06,45.69h-8.12V643.34h7.53l.46,11v3.16a30.1,30.1,0,0,1,11.36-11.45,32.88,32.88,0,0,1,16.9-4.06A49.58,49.58,0,0,1,240.33,642.38Z" transform="translate(186.28 226.51)"/><path class="cls-3" d="M268.76,651.39a17.48,17.48,0,0,1,5.91-6.7,17.82,17.82,0,0,1,9.67-2.67,19.05,19.05,0,0,1,5.68.76,13.16,13.16,0,0,1,4.23,2.14,11.77,11.77,0,0,1,2.61,2.87,17.12,17.12,0,0,1,1.75,3.6,18.52,18.52,0,0,1,2.44-3.5,17.6,17.6,0,0,1,3.3-2.9,19.44,19.44,0,0,1,4.62-2.15,18.56,18.56,0,0,1,5.68-.82,17.35,17.35,0,0,1,7.66,1.55,12.38,12.38,0,0,1,4.95,4.19A16.69,16.69,0,0,1,330.1,654a33.42,33.42,0,0,1,.86,7.66l-.07,53.09h-7.46l-.06-53.15a26,26,0,0,0-.43-4.59,11.6,11.6,0,0,0-1.62-4.19,8.72,8.72,0,0,0-3.24-2.88,10.82,10.82,0,0,0-5.28-1,15.31,15.31,0,0,0-5.58,1,11.27,11.27,0,0,0-6.07,5.91,23.44,23.44,0,0,0-1.29,3.9V661l-.07,53.81H292.4l-.07-53.88a21.72,21.72,0,0,0-.46-4.46,10.67,10.67,0,0,0-1.65-3.92,8.44,8.44,0,0,0-3.2-2.64,11.17,11.17,0,0,0-5.19-.93,14.44,14.44,0,0,0-5.64,1.09,11,11,0,0,0-3.8,2.74,13.17,13.17,0,0,0-2.11,3.6,35.79,35.79,0,0,0-1.32,4l-.07,54.41h-7.46V643.34h7.13Z" transform="translate(186.28 226.51)"/><path class="cls-3" d="M366.42,713.33a31.94,31.94,0,0,1-10.5-7.53,34.74,34.74,0,0,1-6.87-11.19A37.55,37.55,0,0,1,346.61,681V678.2A40.43,40.43,0,0,1,349.09,664a36.17,36.17,0,0,1,6.83-11.52,31.49,31.49,0,0,1,10-7.63A28.44,28.44,0,0,1,378.5,642a29.61,29.61,0,0,1,12.55,2.54,26.7,26.7,0,0,1,9.24,7A30.68,30.68,0,0,1,406,662a42.85,42.85,0,0,1,2,12.78v4.82H354.47v2.18a34,34,0,0,0,2.11,10.56A27.22,27.22,0,0,0,361.8,701a24.41,24.41,0,0,0,8,6.11,23.77,23.77,0,0,0,10.47,2.28,27.25,27.25,0,0,0,11.95-2.44,25.88,25.88,0,0,0,9.18-7.27l4.95,3.77a29.75,29.75,0,0,1-10.76,9.17A33.4,33.4,0,0,1,380,716.1,32.49,32.49,0,0,1,366.42,713.33Zm3.17-62.7a22.74,22.74,0,0,0-7.07,5,27.6,27.6,0,0,0-5,7.66,34.93,34.93,0,0,0-2.71,9.57h45.3v-.72a25.14,25.14,0,0,0-1.56-8.65,24.56,24.56,0,0,0-4.26-7.53,20.78,20.78,0,0,0-6.73-5.18,20.24,20.24,0,0,0-9.05-1.95A21.44,21.44,0,0,0,369.59,650.63Z" transform="translate(186.28 226.51)"/><path class="cls-3" d="M430.6,643.34h7.26l.47,13.86a32.72,32.72,0,0,1,3.89-5.74,26.07,26.07,0,0,1,5-4.56,28.58,28.58,0,0,1,7.17-3.56,26,26,0,0,1,8.35-1.32,28.19,28.19,0,0,1,10.4,1.78,19.51,19.51,0,0,1,7.56,5.22,23.17,23.17,0,0,1,4.69,8.51A38.18,38.18,0,0,1,487,669v45.82h-7.86V669.09a32.47,32.47,0,0,0-1.15-8.65,16.49,16.49,0,0,0-3.34-6.34,14.6,14.6,0,0,0-5.71-3.89,21.56,21.56,0,0,0-8.09-1.26,20.92,20.92,0,0,0-7.72,1.42,25.12,25.12,0,0,0-6.6,3.8,23.82,23.82,0,0,0-4.83,5.31,26.86,26.86,0,0,0-3.17,6.51v48.79H430.6Z" transform="translate(186.28 226.51)"/><path class="cls-3" d="M592.31,665a36.7,36.7,0,0,1,5.09-11.49,27.32,27.32,0,0,1,8.81-8.29,24.62,24.62,0,0,1,12.84-3.2,27.92,27.92,0,0,1,7.37,1,23.57,23.57,0,0,1,6.37,2.81,25.16,25.16,0,0,1,4.26,3.37,25.58,25.58,0,0,1,3.46,4.22l.33-10h7.33v70.19a34.58,34.58,0,0,1-2,12.05,26.94,26.94,0,0,1-5.71,9.34,26.1,26.1,0,0,1-9,6.14,32,32,0,0,1-19.12,1.29,31,31,0,0,1-7.13-2.67,32.1,32.1,0,0,1-5.71-3.6,25.84,25.84,0,0,1-4.86-5l4.43-4.88a34.3,34.3,0,0,0,4,4.09,26.84,26.84,0,0,0,4.22,3,25.93,25.93,0,0,0,5.65,2.34,22.75,22.75,0,0,0,6.17.83,23.14,23.14,0,0,0,9-1.65,19.11,19.11,0,0,0,6.7-4.63,20.55,20.55,0,0,0,4.06-7.16,28.73,28.73,0,0,0,1.42-9.28v-7.86a21.44,21.44,0,0,1-3.66,4,26.71,26.71,0,0,1-4.53,3.07,27.06,27.06,0,0,1-6.24,2.31,29.61,29.61,0,0,1-6.9.79,24.41,24.41,0,0,1-12.28-3,26.86,26.86,0,0,1-8.72-7.92,34.62,34.62,0,0,1-5.48-11.72,53,53,0,0,1-1.78-13.7V678.4A53.47,53.47,0,0,1,592.31,665Zm7.56,25.71a28.58,28.58,0,0,0,3.93,9.55,18.69,18.69,0,0,0,6.6,6.47,19.37,19.37,0,0,0,10,2.44,23.07,23.07,0,0,0,6.43-.89,22.76,22.76,0,0,0,5.71-2.54,21.72,21.72,0,0,0,4.53-4,18.75,18.75,0,0,0,3.2-5.31V662.82a22.67,22.67,0,0,0-3.1-5.62,21.74,21.74,0,0,0-4.43-4.35,20,20,0,0,0-5.58-2.88,20.89,20.89,0,0,0-6.63-1,18.88,18.88,0,0,0-10.5,2.74,21.07,21.07,0,0,0-6.74,7,29.89,29.89,0,0,0-3.6,9.31,50.67,50.67,0,0,0-1.09,10.43v1.39A53.37,53.37,0,0,0,599.87,690.71Z" transform="translate(186.28 226.51)"/><path class="cls-3" d="M672.21,664.2a34.66,34.66,0,0,1,6.27-11.42,31.26,31.26,0,0,1,36.75-7.86,31.16,31.16,0,0,1,10.07,7.79,36.55,36.55,0,0,1,6.21,11.49,44.63,44.63,0,0,1,2.24,13.8v2.18A44.83,44.83,0,0,1,731.54,694a34.93,34.93,0,0,1-6.24,11.46,30.43,30.43,0,0,1-10,7.79A29.82,29.82,0,0,1,702,716.1a30.48,30.48,0,0,1-13.47-2.87,28.76,28.76,0,0,1-10-7.82A34,34,0,0,1,672.21,694a43.4,43.4,0,0,1-2.18-13.8V678A43.45,43.45,0,0,1,672.21,664.2Zm7.26,26.94a29.31,29.31,0,0,0,4.62,9.31,22.67,22.67,0,0,0,7.53,6.51A21.57,21.57,0,0,0,702,709.37,21,21,0,0,0,712.22,707a23.48,23.48,0,0,0,7.53-6.51,30.49,30.49,0,0,0,4.53-9.34,40,40,0,0,0,1.61-10.93V678a39,39,0,0,0-1.65-10.89,29.93,29.93,0,0,0-4.55-9.31,23.64,23.64,0,0,0-7.57-6.54,22.88,22.88,0,0,0-20.56,0,23.19,23.19,0,0,0-7.47,6.54,29.41,29.41,0,0,0-4.62,9.31A37.9,37.9,0,0,0,677.89,678v2.18A38.12,38.12,0,0,0,679.47,691.14Z" transform="translate(186.28 226.51)"/><path class="cls-3" d="M772.18,713.33a31.94,31.94,0,0,1-10.5-7.53,34.74,34.74,0,0,1-6.87-11.19A37.55,37.55,0,0,1,752.37,681V678.2A40.43,40.43,0,0,1,754.85,664a36.17,36.17,0,0,1,6.83-11.52,31.49,31.49,0,0,1,10-7.63,28.44,28.44,0,0,1,12.54-2.8,29.58,29.58,0,0,1,12.55,2.54,26.7,26.7,0,0,1,9.24,7A30.51,30.51,0,0,1,811.73,662a42.85,42.85,0,0,1,2,12.78v4.82H760.23v2.18a34,34,0,0,0,2.11,10.56,27.22,27.22,0,0,0,5.22,8.65,24.41,24.41,0,0,0,8,6.11,23.77,23.77,0,0,0,10.47,2.28,27.25,27.25,0,0,0,12-2.44,25.88,25.88,0,0,0,9.18-7.27l5,3.77a29.75,29.75,0,0,1-10.76,9.17,33.4,33.4,0,0,1-15.65,3.5A32.49,32.49,0,0,1,772.18,713.33Zm3.17-62.7a22.74,22.74,0,0,0-7.07,5,27.6,27.6,0,0,0-5,7.66,35.28,35.28,0,0,0-2.71,9.57h45.3v-.72a25.14,25.14,0,0,0-1.56-8.65A24.56,24.56,0,0,0,800,656a20.78,20.78,0,0,0-6.73-5.18,20.24,20.24,0,0,0-9-1.95A21.4,21.4,0,0,0,775.35,650.63Z" transform="translate(186.28 226.51)"/><path class="cls-3" d="M862.71,643.34h26.48v6.54H862.71v44.76a18.4,18.4,0,0,0,1.25,6.94,11.07,11.07,0,0,0,3.3,4.42,12.61,12.61,0,0,0,5,2.44,24.1,24.1,0,0,0,6.07.73c1.28,0,2.55,0,3.83-.16s2.53-.24,3.77-.37c.92-.13,1.83-.27,2.74-.43s1.68-.29,2.34-.43l1.19,6a13.28,13.28,0,0,1-2.74,1,31.5,31.5,0,0,1-3.27.66,36.06,36.06,0,0,1-4.52.53c-1.57.09-3.12.13-4.66.13a32,32,0,0,1-8.81-1.15,18.26,18.26,0,0,1-7-3.73,16.88,16.88,0,0,1-4.65-6.61,27,27,0,0,1-1.75-10V649.88H834.84v-6.54h19.88V625.05h8Z" transform="translate(186.28 226.51)"/><path class="cls-3" d="M977.27,708.05v6.73H914.54l.07-5.94,48.6-58.63H916.06v-6.87h57.78l-.07,5.87L925,708.05Z" transform="translate(186.28 226.51)"/></svg>